<svg xmlns="http://www.w3.org/2000/svg" viewBox="0 0 173.6 173.6">
  <path d="M 33.397 3.55 L 139.993 3.55 C 156.55 3.55 169.973 16.973 169.973 33.53 L 169.973 140.126 C 169.973 156.683 153.55 170.106 136.993 170.106 L 3.397 170.106 C 2.83 144.123 3.417 33.53 3.417 33.53 C 3.417 16.973 16.84 3.55 33.397 3.55 Z" style="fill: rgb(216, 216, 216); stroke: rgb(178, 178, 178); stroke-width: 7px;"></path>
  <path style="fill: none; stroke: rgb(0, 0, 0); stroke-width: 13px;" d="M 61.148 62.056 L 144.379 146.063"></path>
  <g style="" transform="matrix(1.231207, 0, 0, 1.231207, -158.049807, -217.21503)">
    <path d="M 221.546 229.25 C 221.546 246.635 209.965 206.04 189.112 220.036 C 168.259 234.032 152.258 246.635 152.258 229.25 C 152.258 211.866 167.769 197.772 186.902 197.772 C 206.036 197.772 221.546 211.866 221.546 229.25 Z" style="stroke-width: 8; fill: rgb(0, 255, 241);"></path>
    <path d="M 221.792 244.324 C 221.792 261.709 206.282 246.463 187.148 246.463 C 168.015 246.463 152.504 261.709 152.504 244.324 C 152.504 226.94 167.522 233.225 187.393 220.703 C 207.264 208.181 221.792 226.94 221.792 244.324 Z" style="stroke-width: 8; fill: rgb(255, 0, 222);"></path>
    <path d="M 219.635 250.54 C 210.55 264.979 206.09 268.005 186.956 268.005 C 167.823 268.005 169.991 269.398 155.75 256.433 C 141.509 243.468 166.722 258.532 186.956 242.388 C 207.19 226.244 228.893 235.826 219.635 250.54 Z" style="stroke-width: 8; fill: rgb(237, 255, 0);"></path>
  </g>
  <ellipse style="stroke: rgb(0, 0, 0); fill: none; stroke-width: 13px;" cx="71.01" cy="72.331" rx="42.654" ry="42.654"></ellipse>
</svg>