<svg xmlns="http://www.w3.org/2000/svg" viewBox="0 0 77.927 140.398">
  <defs>
    <clipPath id="clip-0">
      <path d="M 205.758 318.593 L 201.131 318.593 C 200.641 310.601 199.028 300.927 196.293 289.57 L 190.826 266.645 C 187.531 252.904 185.883 243.055 185.883 237.096 C 185.883 231.698 187.495 227.351 190.72 224.056 C 193.945 220.761 198.151 219.113 203.339 219.113 C 208.387 219.113 212.575 220.778 215.905 224.108 C 219.235 227.438 220.9 231.662 220.9 236.78 C 220.9 242.108 219.148 252.063 215.642 266.645 L 210.069 289.57 C 208.107 297.702 206.669 307.377 205.758 318.593 Z M 203.55 333.631 C 208.247 333.631 212.26 335.296 215.59 338.626 C 218.92 341.956 220.585 346.005 220.585 350.772 C 220.585 355.469 218.92 359.483 215.59 362.813 C 212.26 366.143 208.247 367.808 203.55 367.808 C 198.852 367.808 194.839 366.143 191.508 362.813 C 188.179 359.483 186.514 355.469 186.514 350.772 C 186.514 346.075 188.162 342.044 191.456 338.679 C 194.751 335.314 198.783 333.631 203.55 333.631 Z" style="fill: rgb(51, 51, 51); text-wrap-mode: nowrap;"></path>
    </clipPath>
  </defs>
  <a style="clip-path: url(#clip-0); transform-origin: 203.391px 293.461px;" transform="matrix(0.92388, -0.382684, 0.382684, 0.92388, -164.186129, -222.980869)">
    <path d="M 241.672 227.861 C 241.672 233.01 224.074 226.934 202.365 226.934 C 180.656 226.934 163.058 233.01 163.058 227.861 C 163.058 222.711 180.656 218.536 202.365 218.536 C 224.074 218.536 241.672 222.711 241.672 227.861 Z" style="fill: rgb(0, 255, 235);"></path>
    <path d="M 241.655 236.216 C 241.655 241.366 224.057 235.29 202.348 235.29 C 180.639 235.29 163.041 241.366 163.041 236.216 C 163.041 231.066 180.639 226.891 202.348 226.891 C 224.057 226.891 241.655 231.066 241.655 236.216 Z" style="stroke-width: 1; fill: rgb(255, 0, 222);"></path>
    <path d="M 241.663 244.522 C 241.663 249.671 224.065 243.596 202.356 243.596 C 180.647 243.596 163.049 249.671 163.049 244.522 C 163.049 239.372 180.647 235.197 202.356 235.197 C 224.065 235.197 241.663 239.372 241.663 244.522 Z" style="stroke-width: 1; fill: rgb(255, 250, 0);"></path>
    <path d="M 241.646 252.877 C 241.646 258.027 224.048 251.951 202.339 251.951 C 180.63 251.951 163.032 258.027 163.032 252.877 C 163.032 247.727 180.63 243.552 202.339 243.552 C 224.048 243.552 241.646 247.727 241.646 252.877 Z" style="stroke-width: 1;"></path>
    <path d="M 242.019 261.263 C 242.019 266.413 224.421 260.337 202.712 260.337 C 181.003 260.337 163.405 266.413 163.405 261.263 C 163.405 256.113 181.003 251.938 202.712 251.938 C 224.421 251.938 242.019 256.113 242.019 261.263 Z" style="fill: rgb(0, 255, 235); stroke-width: 1;"></path>
    <path d="M 242.002 269.618 C 242.002 274.768 224.404 268.692 202.695 268.692 C 180.986 268.692 163.388 274.768 163.388 269.618 C 163.388 264.468 180.986 260.294 202.695 260.294 C 224.404 260.294 242.002 264.468 242.002 269.618 Z" style="stroke-width: 1; fill: rgb(255, 0, 222);"></path>
    <path d="M 242.01 277.924 C 242.01 283.074 224.412 276.998 202.703 276.998 C 180.994 276.998 163.396 283.074 163.396 277.924 C 163.396 272.774 180.994 268.599 202.703 268.599 C 224.412 268.599 242.01 272.774 242.01 277.924 Z" style="stroke-width: 1; fill: rgb(255, 250, 0);"></path>
    <path d="M 242.845 293.874 C 242.845 299.023 225.247 292.947 203.538 292.947 C 181.829 292.947 164.231 299.023 164.231 293.874 C 164.231 288.724 181.829 284.549 203.538 284.549 C 225.247 284.549 242.845 288.724 242.845 293.874 Z" style="fill: rgb(0, 255, 235); stroke-width: 1;"></path>
    <path d="M 242.828 302.229 C 242.828 307.379 225.23 301.303 203.521 301.303 C 181.812 301.303 164.214 307.379 164.214 302.229 C 164.214 297.079 181.812 292.904 203.521 292.904 C 225.23 292.904 242.828 297.079 242.828 302.229 Z" style="stroke-width: 1; fill: rgb(255, 0, 222);"></path>
    <path d="M 242.836 310.535 C 242.836 315.684 225.238 309.609 203.529 309.609 C 181.82 309.609 164.222 315.684 164.222 310.535 C 164.222 305.385 181.82 301.21 203.529 301.21 C 225.238 301.21 242.836 305.385 242.836 310.535 Z" style="stroke-width: 1; fill: rgb(255, 250, 0);"></path>
    <path d="M 242.819 318.89 C 242.819 324.04 225.221 317.964 203.512 317.964 C 181.803 317.964 164.205 324.04 164.205 318.89 C 164.205 313.74 181.803 309.565 203.512 309.565 C 225.221 309.565 242.819 313.74 242.819 318.89 Z" style="stroke-width: 1;"></path>
    <path d="M 243.192 327.276 C 243.192 332.426 225.594 326.35 203.885 326.35 C 182.176 326.35 164.578 332.426 164.578 327.276 C 164.578 322.126 182.176 317.951 203.885 317.951 C 225.594 317.951 243.192 322.126 243.192 327.276 Z" style="fill: rgb(0, 255, 235); stroke-width: 1;"></path>
    <path d="M 243.175 335.631 C 243.175 340.781 225.577 334.705 203.868 334.705 C 182.159 334.705 164.561 340.781 164.561 335.631 C 164.561 330.481 182.159 326.307 203.868 326.307 C 225.577 326.307 243.175 330.481 243.175 335.631 Z" style="stroke-width: 1; fill: rgb(255, 0, 222);"></path>
    <path d="M 243.183 343.937 C 243.183 349.087 225.585 343.011 203.876 343.011 C 182.167 343.011 164.569 349.087 164.569 343.937 C 164.569 338.787 182.167 334.612 203.876 334.612 C 225.585 334.612 243.183 338.787 243.183 343.937 Z" style="stroke-width: 1; fill: rgb(255, 250, 0);"></path>
    <path d="M 243.166 352.292 C 243.166 357.442 225.568 351.366 203.859 351.366 C 182.15 351.366 164.552 357.442 164.552 352.292 C 164.552 347.142 182.15 342.968 203.859 342.968 C 225.568 342.968 243.166 347.142 243.166 352.292 Z" style="stroke-width: 1;"></path>
    <path d="M 243.998 360.229 C 243.998 365.379 226.4 359.303 204.691 359.303 C 182.982 359.303 165.384 365.379 165.384 360.229 C 165.384 355.079 182.982 350.904 204.691 350.904 C 226.4 350.904 243.998 355.079 243.998 360.229 Z" style="fill: rgb(0, 255, 235); stroke-width: 1;"></path>
    <path d="M 243.981 368.584 C 243.981 373.734 226.383 367.658 204.674 367.658 C 182.965 367.658 165.367 373.734 165.367 368.584 C 165.367 363.434 182.965 359.26 204.674 359.26 C 226.383 359.26 243.981 363.434 243.981 368.584 Z" style="stroke-width: 1; fill: rgb(255, 0, 222);"></path>
    <path d="M 241.993 286.279 C 241.993 291.429 224.395 285.353 202.686 285.353 C 180.977 285.353 163.379 291.429 163.379 286.279 C 163.379 281.129 180.977 276.955 202.686 276.955 C 224.395 276.955 241.993 281.129 241.993 286.279 Z" style="stroke-width: 1;"></path>
  </a>
</svg>