<svg xmlns="http://www.w3.org/2000/svg" viewBox="0 0 227.7 61" xmlns:bx="https://boxy-svg.com">
  <defs>
    <path id="path-0" d="M 143.73750309613553 285.47638281726375 L 143.73750309613553 239.48031955295352" style="fill: none;"></path>
    <path id="path-1" d="M 309.627 285.476 C 316.026 290.776 318.954 293.868 318.954 299.467 C 318.954 305.329 321.231 310.85 322.285 316.123 C 323.63 322.835 325.616 329.136 325.616 334.777 C 325.616 344.969 324.926 352.148 321.619 358.761 C 320.953 364.84 315.272 368.777 312.292 372.751 C 302.175 377.477 289.859 373.839 280.313 378.081 C 264.688 378.081 256.066 366.089 244.337 366.089 C 235.03 364.757 230.204 351.885 226.349 346.103 C 213.374 323.589 219.954 304.929 228.348 288.141 C 247.252 258.053 262.768 235.31 290.973 226.849 C 317.121 218.133 320.468 218.693 336.942 224.184 C 356.525 234.368 366.527 241.111 379.58 254.164 C 402.852 268.793 402.898 286.019 402.898 307.462 C 402.305 341.263 401.224 364.287 400.233 387.408 C 399.784 397.895 404.61 420.791 391.572 424.051 C 372.642 425.858 358.641 437.262 342.272 438.041 C 302.318 439.944 261.631 438.596 221.686 438.041 C 151.283 438.742 144.052 441.138 118.421 424.051 C 95.946 381.765 101.205 345.078 103.764 304.131 C 113.257 243.055 137.811 181.773 174.384 139.574 C 197.196 115.806 229.834 79.614 258.328 79.614 L 258.328 80.28 L 258.994 80.946" style="fill: none;"></path>
    <path id="path-2" d="M 73.118 364.757 C 74.721 350.055 72.424 345.423 79.114 348.767 C 83.293 355.126 92.438 364.918 92.438 369.42 C 100.446 377.428 105.097 380.782 105.097 368.754 C 105.097 355.15 107.72 356.647 115.09 347.435 C 123.744 336.782 126.325 352.31 127.748 359.427 C 135.758 369.435 144.916 373.93 151.732 380.746 C 152.398 364.27 149.39 355.796 154.397 340.773 C 168.818 322.958 171.383 314.949 177.715 330.779 C 186.244 348.503 208.793 362.324 222.352 373.418 C 237.575 389.307 249.525 408.912 239.674 375.416 C 236.088 363.224 237.25 371.598 233.011 361.426 C 228.776 352.289 239.731 341.335 243.005 336.775 C 251.222 325.331 259.603 311.516 269.654 301.466 L 269.654 300.799 C 270.32 300.799 270.986 300.799 271.652 300.799" style="fill: none;"></path>
    <linearGradient id="gradient-1" bx:pinned="true">
      <stop offset="0.196" style="stop-color: rgb(0, 235, 255);"></stop>
      <stop offset="0.196" style="stop-color: rgb(151, 0, 140);"></stop>
      <stop offset="0.287" style="stop-color: rgb(151, 0, 140);"></stop>
      <stop offset="0.287" style="stop-color: rgb(247, 242, 0);"></stop>
      <stop offset="0.458" style="stop-color: rgb(255, 250, 0);"></stop>
      <stop offset="0.458" style=""></stop>
      <stop offset="0.647" style=""></stop>
      <stop offset="0.647" style="stop-color: rgb(0, 235, 255);"></stop>
      <stop offset="0.798" style="stop-color: rgb(0, 235, 255);"></stop>
      <stop offset="0.798" style="stop-color: rgb(151, 0, 140);"></stop>
      <stop offset="0.929" style="stop-color: rgb(151, 0, 140);"></stop>
      <stop offset="0.929" style=""></stop>
    </linearGradient>
    <linearGradient id="gradient-1-0" href="#gradient-1" gradientUnits="userSpaceOnUse" x1="132.645" y1="197.387" x2="132.645" y2="257.922" gradientTransform="matrix(0, -3.773501, 3.773501, 0, -745.842052, 475.923164)"></linearGradient>
  </defs>
  <path d="M 18.537 13.914 L 18.537 33.795 L 19.929 33.795 C 22.071 33.795 23.82 33.474 25.176 32.831 C 26.533 32.189 27.681 31.106 28.621 29.583 C 29.561 28.06 30.174 26.002 30.459 23.408 L 31.708 23.408 L 31.708 47.715 L 30.459 47.715 C 30.007 43.123 28.776 40.095 26.765 38.632 C 24.754 37.168 22.476 36.436 19.929 36.436 L 18.537 36.436 L 18.537 51.249 C 18.537 53.724 18.674 55.27 18.948 55.889 C 19.221 56.508 19.757 57.049 20.554 57.513 C 21.351 57.977 22.428 58.209 23.784 58.209 L 25.39 58.209 L 25.39 59.53 L 0.084 59.53 L 0.084 58.209 L 1.69 58.209 C 3.094 58.209 4.224 57.959 5.081 57.46 C 5.7 57.127 6.176 56.556 6.509 55.747 C 6.77 55.176 6.901 53.676 6.901 51.249 L 6.901 19.411 C 6.901 16.936 6.77 15.39 6.509 14.771 C 6.247 14.152 5.717 13.61 4.92 13.146 C 4.123 12.682 3.047 12.45 1.69 12.45 L 0.084 12.45 L 0.084 11.13 L 40.917 11.13 L 40.917 25.015 L 39.454 25.015 C 39.121 21.755 38.27 19.34 36.902 17.769 C 35.533 16.198 33.552 15.092 30.959 14.449 C 29.531 14.092 26.89 13.914 23.035 13.914 L 18.537 13.914 Z M 53.594 0.661 C 55.141 0.661 56.449 1.202 57.52 2.285 C 58.591 3.368 59.126 4.67 59.126 6.193 C 59.126 7.716 58.585 9.013 57.502 10.084 C 56.419 11.155 55.117 11.69 53.594 11.69 C 52.071 11.69 50.774 11.155 49.703 10.084 C 48.632 9.013 48.097 7.716 48.097 6.193 C 48.097 4.67 48.632 3.368 49.703 2.285 C 50.774 1.202 52.071 0.661 53.594 0.661 Z M 58.591 16.83 L 58.591 43.278 C 58.591 45.634 58.865 47.139 59.412 47.794 C 59.959 48.448 61.03 48.823 62.624 48.918 L 62.624 50.203 L 44.599 50.203 L 44.599 48.918 C 46.074 48.871 47.169 48.442 47.883 47.633 C 48.359 47.086 48.597 45.634 48.597 43.278 L 48.597 23.79 C 48.597 21.434 48.323 19.929 47.776 19.275 C 47.229 18.62 46.17 18.245 44.599 18.15 L 44.599 16.83 L 58.591 16.83 Z M 79.507 27.49 L 79.507 31.809 C 81.22 29.953 82.862 28.602 84.432 27.757 C 86.003 26.912 87.692 26.49 89.501 26.49 C 91.666 26.49 93.463 27.091 94.891 28.293 C 96.318 29.494 97.27 30.987 97.746 32.772 C 98.127 34.129 98.317 36.734 98.317 40.589 L 98.317 53.582 C 98.317 56.151 98.549 57.751 99.013 58.382 C 99.477 59.013 100.447 59.411 101.922 59.578 L 101.922 60.863 L 85.039 60.863 L 85.039 59.578 C 86.3 59.411 87.205 58.888 87.752 58.008 C 88.133 57.413 88.323 55.937 88.323 53.582 L 88.323 38.733 C 88.323 35.996 88.216 34.271 88.002 33.558 C 87.788 32.844 87.425 32.291 86.913 31.898 C 86.402 31.505 85.837 31.309 85.218 31.309 C 83.171 31.309 81.268 32.772 79.507 35.699 L 79.507 53.582 C 79.507 56.08 79.739 57.662 80.203 58.329 C 80.667 58.995 81.53 59.411 82.791 59.578 L 82.791 60.863 L 65.908 60.863 L 65.908 59.578 C 67.312 59.435 68.311 58.983 68.906 58.222 C 69.311 57.698 69.513 56.151 69.513 53.582 L 69.513 34.735 C 69.513 32.213 69.281 30.643 68.817 30.024 C 68.353 29.405 67.383 29.001 65.908 28.81 L 65.908 27.49 L 79.507 27.49 Z M 138.978 2.47 L 138.978 40.876 C 138.978 43.469 139.049 45.004 139.192 45.48 C 139.382 46.265 139.745 46.848 140.28 47.229 C 140.816 47.61 141.75 47.848 143.082 47.943 L 143.082 49.121 L 128.983 51.869 L 128.983 46.587 C 127.294 48.633 125.789 50.025 124.468 50.763 C 123.147 51.5 121.654 51.869 119.989 51.869 C 115.73 51.869 112.363 49.965 109.888 46.158 C 107.889 43.065 106.889 39.269 106.889 34.772 C 106.889 31.179 107.508 27.961 108.745 25.117 C 109.982 22.274 111.678 20.126 113.832 18.675 C 115.985 17.223 118.299 16.497 120.774 16.497 C 122.368 16.497 123.784 16.806 125.022 17.425 C 126.259 18.044 127.58 19.126 128.983 20.673 L 128.983 10.608 C 128.983 8.062 128.876 6.527 128.662 6.003 C 128.377 5.313 127.948 4.802 127.377 4.469 C 126.806 4.136 125.736 3.969 124.165 3.969 L 124.165 2.47 L 138.978 2.47 Z M 128.983 25.099 C 127.222 21.72 125.069 20.031 122.523 20.031 C 121.642 20.031 120.917 20.269 120.346 20.745 C 119.465 21.482 118.745 22.779 118.186 24.635 C 117.627 26.491 117.347 29.335 117.347 33.166 C 117.347 37.378 117.656 40.495 118.275 42.518 C 118.894 44.541 119.739 46.004 120.81 46.908 C 121.357 47.36 122.107 47.586 123.058 47.586 C 125.152 47.586 127.127 45.944 128.983 42.661 L 128.983 25.099 Z M 175.462 42.315 L 157.151 42.315 C 157.365 46.741 158.543 50.239 160.685 52.808 C 162.327 54.783 164.302 55.771 166.61 55.771 C 168.038 55.771 169.335 55.372 170.5 54.575 C 171.666 53.778 172.915 52.345 174.248 50.274 L 175.462 51.059 C 173.653 54.748 171.654 57.359 169.465 58.894 C 167.276 60.429 164.742 61.196 161.863 61.196 C 156.913 61.196 153.165 59.292 150.619 55.485 C 148.573 52.416 147.55 48.609 147.55 44.064 C 147.55 38.495 149.055 34.063 152.065 30.768 C 155.075 27.472 158.603 25.824 162.648 25.824 C 166.027 25.824 168.959 27.21 171.446 29.983 C 173.933 32.755 175.271 36.866 175.462 42.315 Z M 166.681 39.923 C 166.681 36.092 166.473 33.463 166.057 32.035 C 165.64 30.607 164.992 29.524 164.111 28.787 C 163.612 28.358 162.946 28.144 162.113 28.144 C 160.875 28.144 159.864 28.751 159.079 29.965 C 157.675 32.082 156.973 34.985 156.973 38.674 L 156.973 39.923 L 166.681 39.923 Z M 194.821 18.163 L 194.821 25.73 C 197.034 22.279 198.973 19.989 200.639 18.859 C 202.304 17.728 203.91 17.163 205.457 17.163 C 206.79 17.163 207.855 17.574 208.652 18.395 C 209.449 19.216 209.848 20.376 209.848 21.875 C 209.848 23.469 209.461 24.706 208.688 25.587 C 207.915 26.468 206.981 26.908 205.886 26.908 C 204.625 26.908 203.53 26.503 202.602 25.694 C 201.674 24.885 201.127 24.433 200.96 24.338 C 200.722 24.195 200.448 24.124 200.139 24.124 C 199.449 24.124 198.795 24.386 198.176 24.909 C 197.201 25.718 196.463 26.872 195.963 28.371 C 195.202 30.679 194.821 33.225 194.821 36.009 L 194.821 43.683 L 194.857 45.682 C 194.857 47.039 194.94 47.907 195.106 48.288 C 195.392 48.931 195.815 49.401 196.374 49.698 C 196.933 49.995 197.878 50.18 199.211 50.251 L 199.211 51.536 L 181.186 51.536 L 181.186 50.251 C 182.637 50.132 183.619 49.734 184.131 49.055 C 184.642 48.377 184.898 46.586 184.898 43.683 L 184.898 25.23 C 184.898 23.327 184.803 22.113 184.613 21.589 C 184.375 20.923 184.03 20.435 183.577 20.126 C 183.125 19.817 182.328 19.602 181.186 19.483 L 181.186 18.163 L 194.821 18.163 Z M 222.617 43.79 L 221.046 43.79 C 220.879 41.077 220.332 37.794 219.404 33.939 L 217.548 26.158 C 216.429 21.494 215.87 18.151 215.87 16.128 C 215.87 14.295 216.417 12.82 217.512 11.702 C 218.607 10.583 220.035 10.024 221.796 10.024 C 223.509 10.024 224.931 10.589 226.061 11.72 C 227.191 12.85 227.756 14.284 227.756 16.021 C 227.756 17.829 227.161 21.208 225.972 26.158 L 224.08 33.939 C 223.414 36.699 222.926 39.983 222.617 43.79 Z M 221.867 48.894 C 223.461 48.894 224.823 49.459 225.954 50.59 C 227.084 51.72 227.649 53.094 227.649 54.712 C 227.649 56.307 227.084 57.669 225.954 58.799 C 224.823 59.93 223.461 60.495 221.867 60.495 C 220.273 60.495 218.911 59.93 217.78 58.799 C 216.65 57.669 216.085 56.307 216.085 54.712 C 216.085 53.118 216.644 51.75 217.762 50.608 C 218.881 49.465 220.249 48.894 221.867 48.894 Z" style="text-wrap-mode: nowrap; fill-rule: nonzero; fill: url(#gradient-1-0);"></path>
</svg>